<svg xmlns="http://www.w3.org/2000/svg" width="38" height="40" viewBox="0 0 38 40" fill="none">
    <g id="star 1">
    <g id="star">
    <path id="Vector" d="M34.667 16.7735L27.4474 24.1816L29.1523 34.6446C29.2265 35.1021 29.048 35.5645 28.691 35.8378C28.4894 35.9927 28.2494 36.0708 28.0095 36.0708C27.8252 36.0708 27.6398 36.0244 27.4706 35.9305L18.5437 30.9906L9.61799 35.9293C9.22855 36.1465 8.75451 36.1111 8.39753 35.8366C8.04054 35.5633 7.86205 35.1009 7.93623 34.6434L9.64117 24.1804L2.4204 16.7735C2.10514 16.449 1.99039 15.9634 2.12716 15.523C2.26393 15.0826 2.6267 14.7593 3.06366 14.6922L13.0418 13.1671L17.504 3.6484C17.8946 2.81512 19.1928 2.81512 19.5834 3.6484L24.0456 13.1671L34.0237 14.6922C34.4607 14.7593 34.8235 15.0813 34.9602 15.523C35.097 15.9646 34.9823 16.4478 34.667 16.7735Z" fill="#FFD910"/>
    </g>
    </g>
    </svg>