<svg width="32" height="32" viewBox="0 0 32 32" fill="none" xmlns="http://www.w3.org/2000/svg">
<g id="air-conditioning 1">
<g id="Group">
<g id="Page-1_40_">
<g id="_x30_41---AC-Cold-Air">
<path id="Shape_275_" d="M30.4 2.66797H1.6C0.716375 2.66797 0 3.38434 0 4.26797V13.868C0 14.1625 0.238813 14.4013 0.533312 14.4013C0.827812 14.4013 1.06662 14.1625 1.06662 13.868V4.26797C1.06662 3.97341 1.30544 3.73466 1.59994 3.73466H2.66663V8.00128C2.66663 9.17947 3.62175 10.1346 4.79994 10.1346H27.1999C28.3781 10.1346 29.3333 9.17947 29.3333 8.00128V3.73459H30.4C30.6946 3.73459 30.9333 3.97341 30.9333 4.26791V15.4679C30.9316 16.9399 29.7387 18.1328 28.2666 18.1346H26.6666V17.0679C26.6666 15.8897 25.7115 14.9346 24.5333 14.9346H18.592C18.2974 14.9346 18.0587 15.1734 18.0587 15.4679C18.0587 15.7625 18.2974 16.0012 18.592 16.0012H24.5333C25.1224 16.0012 25.6 16.4788 25.6 17.0679V18.1346H19.616C19.3214 18.1346 19.0827 18.3733 19.0827 18.6679C19.0827 18.9625 19.3215 19.2012 19.616 19.2012H28.2667C30.3276 19.1988 31.9977 17.5288 32 15.4679V4.26791C32 3.38428 31.2837 2.66797 30.4 2.66797ZM28.2667 8.00128C28.2667 8.59041 27.7891 9.06797 27.2 9.06797H4.8C4.21088 9.06797 3.73331 8.59041 3.73331 8.00128V3.73459H28.2666V8.00128H28.2667Z" fill="#303030"/>
<path id="Shape_274_" d="M5.33312 8.00217H26.6664C26.961 8.00217 27.1997 7.76342 27.1997 7.46886C27.1997 7.1743 26.961 6.93555 26.6664 6.93555H5.33312C5.03855 6.93555 4.7998 7.1743 4.7998 7.46886C4.7998 7.76342 5.03862 8.00217 5.33312 8.00217Z" fill="#303030"/>
<path id="Shape_273_" d="M5.33312 5.86741H26.6664C26.961 5.86741 27.1997 5.62859 27.1997 5.33409C27.1997 5.03959 26.961 4.80078 26.6664 4.80078H5.33312C5.03855 4.80078 4.7998 5.03959 4.7998 5.33409C4.7998 5.62859 5.03862 5.86741 5.33312 5.86741Z" fill="#303030"/>
<path id="Oval_10_" d="M26.6671 13.8674C26.9616 13.8674 27.2004 13.6286 27.2004 13.3341C27.2004 13.0396 26.9616 12.8008 26.6671 12.8008C26.3726 12.8008 26.1338 13.0396 26.1338 13.3341C26.1338 13.6286 26.3726 13.8674 26.6671 13.8674Z" fill="#303030"/>
<path id="Oval_9_" d="M28.7999 13.8674C29.0945 13.8674 29.3332 13.6286 29.3332 13.3341C29.3332 13.0396 29.0945 12.8008 28.7999 12.8008C28.5054 12.8008 28.2666 13.0396 28.2666 13.3341C28.2666 13.6286 28.5054 13.8674 28.7999 13.8674Z" fill="#303030"/>
<path id="Shape_272_" d="M19.2002 27.7342C19.2002 28.0288 19.439 28.2675 19.7335 28.2675C20.0281 28.2675 20.2668 28.0287 20.2668 27.7342C20.2718 27.4241 20.4157 27.1326 20.6588 26.9401C21.0883 26.5525 21.3334 26.001 21.3334 25.4225C21.3334 24.8439 21.0883 24.2925 20.6588 23.9048C20.4118 23.7158 20.2669 23.4225 20.2669 23.1115C20.2669 22.8005 20.4118 22.5072 20.6588 22.3182C21.086 21.929 21.3307 21.3788 21.3335 20.8009C21.3335 20.5063 21.0948 20.2676 20.8002 20.2676C20.5056 20.2676 20.2669 20.5063 20.2669 20.8009C20.2619 21.1107 20.118 21.4019 19.8749 21.594C19.4454 21.9814 19.2003 22.5326 19.2003 23.111C19.2003 23.6894 19.4454 24.2406 19.8749 24.6281C20.1219 24.8174 20.2668 25.111 20.2668 25.4222C20.2668 25.7335 20.1219 26.027 19.8749 26.2163C19.4479 26.606 19.2034 27.1563 19.2002 27.7342Z" fill="#303030"/>
<path id="Shape_271_" d="M22.9336 27.7342C22.9336 28.0288 23.1724 28.2675 23.4669 28.2675C23.7615 28.2675 24.0002 28.0287 24.0002 27.7342C24.0052 27.4241 24.1491 27.1326 24.3922 26.9401C24.8217 26.5525 25.0668 26.001 25.0668 25.4225C25.0668 24.8439 24.8217 24.2925 24.3922 23.9048C24.1452 23.7158 24.0003 23.4225 24.0003 23.1115C24.0003 22.8005 24.1452 22.5072 24.3922 22.3182C24.8194 21.929 25.0641 21.3788 25.0669 20.8009C25.0669 20.5063 24.8282 20.2676 24.5336 20.2676C24.239 20.2676 24.0003 20.5063 24.0003 20.8009C23.9953 21.1107 23.8514 21.4019 23.6083 21.594C23.1788 21.9814 22.9337 22.5326 22.9337 23.111C22.9337 23.6894 23.1788 24.2406 23.6083 24.6281C23.8553 24.8174 24.0002 25.111 24.0002 25.4222C24.0002 25.7335 23.8553 26.027 23.6083 26.2163C23.1814 26.606 22.9368 27.1563 22.9336 27.7342Z" fill="#303030"/>
<path id="Shape_270_" d="M26.1338 27.7342C26.1338 28.0288 26.3725 28.2675 26.6671 28.2675C26.9617 28.2675 27.2004 28.0287 27.2004 27.7342C27.2054 27.4241 27.3493 27.1326 27.5924 26.9401C28.0219 26.5525 28.267 26.001 28.267 25.4225C28.267 24.8439 28.0219 24.2925 27.5924 23.9048C27.3454 23.7158 27.2005 23.4225 27.2005 23.1115C27.2005 22.8005 27.3454 22.5072 27.5924 22.3182C28.0196 21.929 28.2643 21.3788 28.2671 20.8009C28.2671 20.5063 28.0283 20.2676 27.7338 20.2676C27.4392 20.2676 27.2005 20.5063 27.2005 20.8009C27.1955 21.1107 27.0516 21.4019 26.8085 21.594C26.379 21.9814 26.1339 22.5326 26.1339 23.111C26.1339 23.6894 26.379 24.2406 26.8085 24.6281C27.0555 24.8174 27.2004 25.111 27.2004 25.4222C27.2004 25.7335 27.0555 26.027 26.8085 26.2163C26.3816 26.606 26.137 27.1563 26.1338 27.7342Z" fill="#303030"/>
<path id="Shape_269_" d="M9.06669 29.3345C14.0741 29.3345 18.1334 25.2752 18.1334 20.2678C18.1334 15.2604 14.0741 11.2012 9.06669 11.2012C4.05931 11.2012 0 15.2605 0 20.2679C0.0055625 25.2729 4.06163 29.3289 9.06669 29.3345ZM9.06669 12.2679C13.4849 12.2679 17.0667 15.8496 17.0667 20.2679C17.0667 24.6861 13.4849 28.2679 9.06669 28.2679C4.64844 28.2679 1.06669 24.6861 1.06669 20.2679C1.07169 15.8516 4.65044 12.2729 9.06669 12.2679Z" fill="#303030"/>
<path id="Shape_268_" d="M6.26697 19.97L8.20403 20.5988L7.00778 22.2452L4.0931 22.7071C3.90278 22.7346 3.74197 22.8625 3.67235 23.0417C3.60272 23.221 3.63497 23.4239 3.75678 23.5727C3.8786 23.7215 4.0711 23.7932 4.2606 23.7604L6.12141 23.4671L5.12035 24.8414C4.94716 25.0797 4.99991 25.4133 5.23822 25.5865C5.47653 25.7597 5.8101 25.7069 5.98328 25.4686L6.98703 24.0932L7.28141 25.9534C7.32228 26.2123 7.54522 26.4031 7.80728 26.4036C7.83553 26.4036 7.86372 26.4013 7.89153 26.3966C8.18235 26.3507 8.38097 26.0779 8.33528 25.787L7.87341 22.8723L9.06703 21.227L10.2633 22.8739L9.80141 25.7886C9.75572 26.0795 9.95435 26.3523 10.2452 26.3982C10.273 26.4029 10.3012 26.4052 10.3294 26.4052C10.5915 26.4047 10.8144 26.2139 10.8553 25.9551L11.1497 24.0948L12.1491 25.4702C12.2614 25.6247 12.4476 25.7074 12.6375 25.6874C12.8274 25.6673 12.9922 25.5474 13.0698 25.373C13.1473 25.1986 13.126 24.9959 13.0137 24.8414L12.0126 23.4671L13.8734 23.762C14.0629 23.7948 14.2554 23.7231 14.3772 23.5743C14.499 23.4255 14.5313 23.2226 14.4617 23.0434C14.392 22.8641 14.2312 22.7362 14.0409 22.7087L11.1262 22.2468L9.92997 20.6004L11.867 19.9716L14.4948 21.3108C14.6652 21.4043 14.873 21.3975 15.037 21.2934C15.2011 21.1892 15.2955 21.004 15.2835 20.8101C15.2714 20.6161 15.1548 20.4441 14.9791 20.361L13.3018 19.5077L14.9205 18.9824C15.1103 18.9307 15.2562 18.7788 15.3002 18.5871C15.3442 18.3954 15.2792 18.1951 15.1309 18.0658C14.9827 17.9366 14.7753 17.8994 14.5914 17.9691L12.9701 18.4949L13.8234 16.8149C13.9573 16.5525 13.853 16.2312 13.5906 16.0973C13.3282 15.9634 13.0068 16.0677 12.873 16.3301L11.5327 18.9605L9.60047 19.5845V17.5472L11.6868 15.4608C11.8733 15.2496 11.8632 14.9298 11.664 14.7306C11.4647 14.5315 11.1449 14.5217 10.9338 14.7082L9.60028 16.0414V14.338C9.60028 14.0434 9.36147 13.8047 9.06697 13.8047C8.77241 13.8047 8.53366 14.0435 8.53366 14.338V16.0404L7.20028 14.7071C7.06635 14.5684 6.8681 14.5128 6.6816 14.5616C6.4951 14.6104 6.34953 14.7561 6.30072 14.9425C6.25191 15.129 6.30753 15.3272 6.44616 15.4612L8.5336 17.5471V19.5844L6.59866 18.9561L5.25841 16.3257C5.12453 16.0632 4.80328 15.959 4.54078 16.0929C4.27835 16.2268 4.1741 16.548 4.30797 16.8105L5.16397 18.4905L3.54266 17.9646C3.35872 17.8949 3.15141 17.9321 3.00316 18.0614C2.85491 18.1906 2.78985 18.391 2.83385 18.5827C2.87785 18.7744 3.02378 18.9263 3.2136 18.9779L4.83228 19.5032L3.15497 20.3566C2.9021 20.4952 2.80522 20.8097 2.93616 21.0666C3.0671 21.3234 3.37853 21.4297 3.63922 21.3065L6.26697 19.97Z" fill="#303030"/>
</g>
</g>
</g>
</g>
</svg>
