<svg width="24" height="24" viewBox="0 0 24 24" fill="none" xmlns="http://www.w3.org/2000/svg">
<g id="down 5">
<g id="16">
<path id="Vector" d="M12.0041 16.0041C11.8725 16.0049 11.742 15.9796 11.6202 15.9299C11.4983 15.8801 11.3875 15.8068 11.2941 15.7141L5.29409 9.71409C5.10579 9.52579 5 9.27039 5 9.00409C5 8.73779 5.10579 8.4824 5.29409 8.29409C5.4824 8.10579 5.73779 8 6.00409 8C6.27039 8 6.52579 8.10579 6.71409 8.29409L12.0041 13.5941L17.2941 8.30409C17.4854 8.14027 17.7315 8.05466 17.9831 8.06438C18.2348 8.0741 18.4736 8.17843 18.6517 8.35653C18.8297 8.53462 18.9341 8.77336 18.9438 9.02504C18.9535 9.27671 18.8679 9.52279 18.7041 9.71409L12.7041 15.7141C12.5178 15.8988 12.2664 16.003 12.0041 16.0041Z" fill="black"/>
</g>
</g>
</svg>
