<svg width="32" height="32" viewBox="0 0 32 32" fill="none" xmlns="http://www.w3.org/2000/svg">
<g id="Mask group">
<mask id="mask0_1244_3851" style="mask-type:alpha" maskUnits="userSpaceOnUse" x="0" y="0" width="32" height="32">
<rect id="Rectangle 25319" width="32" height="32" fill="#D9D9D9"/>
</mask>
<g mask="url(#mask0_1244_3851)">
<g id="g1357">
<g id="g1363">
<path id="path1365" d="M11.9351 9C11.6872 9 11.4489 9.10525 11.2735 9.293C11.0982 9.4805 11 9.73475 11 9.99999V23.3165C11 23.694 11.2852 24 11.6382 24H11.6405C11.8299 24 12.0099 23.9195 12.1431 23.7765C12.7626 23.1145 14.5906 21.1595 15.3457 20.3535C15.5561 20.1273 15.8436 20 16.1429 20C16.4421 20 16.7296 20.1273 16.94 20.3535C17.6974 21.162 19.5348 23.1265 20.1473 23.7825C20.2782 23.9218 20.4535 24 20.6382 24C20.9959 24 21.2857 23.6902 21.2857 23.308V9.99999C21.2857 9.73475 21.1875 9.4805 21.0122 9.293C20.8369 9.10525 20.5985 9 20.3506 9H11.9351Z" stroke="black" stroke-width="1.5" stroke-miterlimit="10" stroke-linecap="round" stroke-linejoin="round"/>
</g>
</g>
</g>
</g>
</svg>
